<svg xmlns="http://www.w3.org/2000/svg" xmlns:xlink="http://www.w3.org/1999/xlink" width="2000" zoomAndPan="magnify" viewBox="0 0 1500 1499.999933" height="2000" preserveAspectRatio="xMidYMid meet" version="1.0"><defs><g/><clipPath id="39162ee5f0"><path d="M 374.042969 265 L 1126 265 L 1126 983 L 374.042969 983 Z M 374.042969 265 " clip-rule="nonzero"/></clipPath><clipPath id="b97ab4b5f2"><rect x="0" width="580" y="0" height="82"/></clipPath></defs><rect x="-150" width="1800" fill="#ffffff" y="-149.999993" height="1799.99992" fill-opacity="1"/><rect x="-150" width="1800" fill="#0b0936" y="-149.999993" height="1799.99992" fill-opacity="1"/><path fill="#33cccc" d="M 749.996094 579.253906 C 715.539062 579.253906 687.484375 607.308594 687.484375 641.765625 C 687.484375 676.226562 715.539062 704.277344 749.996094 704.277344 C 784.453125 704.277344 812.507812 676.226562 812.507812 641.765625 C 812.507812 607.308594 784.453125 579.253906 749.996094 579.253906 Z M 749.996094 678.351562 C 729.824219 678.351562 713.414062 661.9375 713.414062 641.765625 C 713.414062 621.59375 729.824219 605.183594 749.996094 605.183594 C 770.167969 605.183594 786.582031 621.59375 786.582031 641.765625 C 786.582031 661.9375 770.167969 678.351562 749.996094 678.351562 Z M 749.996094 678.351562 " fill-opacity="1" fill-rule="nonzero"/><g clip-path="url(#39162ee5f0)"><path fill="#33cccc" d="M 1063.4375 789.011719 C 1049.359375 789.011719 1036.5 793.859375 1026.050781 801.742188 L 872.867188 701.324219 C 881.683594 683.25 887.050781 663.210938 887.050781 641.765625 C 887.050781 600.230469 868.074219 563.386719 838.800781 538.238281 L 941.835938 387.878906 C 947.542969 389.59375 953.480469 390.8125 959.726562 390.8125 C 994.1875 390.8125 1022.238281 362.757812 1022.238281 328.296875 C 1022.238281 293.839844 994.1875 265.8125 959.726562 265.8125 C 925.269531 265.8125 897.242188 293.867188 897.242188 328.324219 C 897.242188 347.175781 905.796875 363.871094 919.019531 375.359375 L 817.640625 523.300781 C 797.601562 511.816406 774.730469 504.738281 750.023438 504.738281 C 714.941406 504.738281 683.230469 518.375 658.964844 540.128906 L 588.515625 466.625 C 597.28125 455.863281 602.75 442.328125 602.75 427.394531 C 602.75 392.9375 574.699219 364.882812 540.238281 364.882812 C 505.78125 364.882812 477.753906 392.9375 477.753906 427.394531 C 477.753906 461.878906 505.808594 489.90625 540.265625 489.90625 C 550.402344 489.90625 559.839844 487.261719 568.292969 482.957031 L 641.332031 559.210938 C 623.777344 582.238281 612.941406 610.652344 612.941406 641.765625 C 612.941406 663.183594 618.308594 683.226562 627.125 701.296875 L 482.210938 795.261719 C 470.777344 782.945312 454.597656 775.089844 436.527344 775.089844 C 402.070312 775.089844 374.015625 803.140625 374.015625 837.601562 C 374.015625 872.058594 402.070312 900.113281 436.527344 900.113281 C 470.984375 900.113281 499.039062 872.058594 499.039062 837.601562 C 499.039062 830.546875 497.613281 823.910156 495.460938 817.585938 L 640.605469 723.441406 C 660.078125 749.417969 688.210938 768.476562 721.007812 775.582031 L 716.964844 857.824219 C 686.085938 861.609375 661.996094 887.695312 661.996094 919.558594 C 661.996094 954.015625 690.050781 982.070312 724.507812 982.070312 C 758.96875 982.070312 787.023438 954.015625 787.023438 919.558594 C 787.023438 891.503906 768.328125 867.988281 742.8125 860.105469 L 746.832031 778.484375 C 747.894531 778.511719 748.90625 778.796875 749.96875 778.796875 C 794.824219 778.796875 834.339844 756.835938 859.359375 723.464844 L 1008.914062 821.527344 C 1003.988281 830.46875 1000.902344 840.582031 1000.902344 851.5 C 1000.902344 885.957031 1028.929688 914.011719 1063.386719 914.011719 C 1097.84375 914.011719 1125.898438 885.957031 1125.898438 851.5 C 1125.898438 817.039062 1097.898438 789.011719 1063.4375 789.011719 Z M 959.726562 291.738281 C 979.898438 291.738281 996.3125 308.152344 996.3125 328.324219 C 996.3125 348.496094 979.898438 364.910156 959.726562 364.910156 C 939.582031 364.910156 923.167969 348.496094 923.167969 328.324219 C 923.167969 308.152344 939.582031 291.738281 959.726562 291.738281 Z M 436.554688 874.183594 C 416.382812 874.183594 399.96875 857.773438 399.96875 837.601562 C 399.96875 817.429688 416.382812 801.015625 436.554688 801.015625 C 456.726562 801.015625 473.136719 817.429688 473.136719 837.601562 C 473.136719 857.773438 456.699219 874.183594 436.554688 874.183594 Z M 761.121094 919.558594 C 761.121094 939.730469 744.707031 956.144531 724.535156 956.144531 C 704.363281 956.144531 687.949219 939.730469 687.949219 919.558594 C 687.949219 899.386719 704.363281 882.976562 724.535156 882.976562 C 744.707031 883 761.121094 899.414062 761.121094 919.558594 Z M 503.679688 427.394531 C 503.679688 407.222656 520.09375 390.8125 540.265625 390.8125 C 560.4375 390.8125 576.851562 407.222656 576.851562 427.394531 C 576.851562 447.566406 560.4375 463.980469 540.265625 463.980469 C 520.09375 463.980469 503.679688 447.566406 503.679688 427.394531 Z M 749.996094 752.894531 C 688.730469 752.894531 638.871094 703.0625 638.871094 641.765625 C 638.871094 580.472656 688.703125 530.640625 749.996094 530.640625 C 811.289062 530.640625 861.125 580.472656 861.125 641.765625 C 861.125 703.0625 811.265625 752.894531 749.996094 752.894531 Z M 1063.4375 888.082031 C 1043.292969 888.082031 1026.882812 871.671875 1026.882812 851.5 C 1026.882812 831.328125 1043.292969 814.914062 1063.4375 814.914062 C 1083.609375 814.914062 1100.023438 831.328125 1100.023438 851.5 C 1100.023438 871.671875 1083.609375 888.082031 1063.4375 888.082031 Z M 1063.4375 888.082031 " fill-opacity="1" fill-rule="nonzero"/></g><g fill="#33cccc" fill-opacity="1"><g transform="translate(405.92159, 1193.504517)"><g><path d="M 56.328125 -133.53125 C 70.878906 -133.53125 83.488281 -130.816406 94.15625 -125.390625 C 104.820312 -119.960938 112.992188 -112.203125 118.671875 -102.109375 C 124.359375 -92.015625 127.203125 -80.140625 127.203125 -66.484375 C 127.203125 -52.816406 124.359375 -40.96875 118.671875 -30.9375 C 112.992188 -20.914062 104.820312 -13.253906 94.15625 -7.953125 C 83.488281 -2.648438 70.878906 0 56.328125 0 L 14.75 0 L 14.75 -133.53125 Z M 56.328125 -14.375 C 73.566406 -14.375 86.71875 -18.9375 95.78125 -28.0625 C 104.851562 -37.195312 109.390625 -50.003906 109.390625 -66.484375 C 109.390625 -83.078125 104.820312 -96.035156 95.6875 -105.359375 C 86.5625 -114.691406 73.441406 -119.359375 56.328125 -119.359375 L 32.1875 -119.359375 L 32.1875 -14.375 Z M 56.328125 -14.375 "/></g></g></g><g fill="#33cccc" fill-opacity="1"><g transform="translate(548.455831, 1193.504517)"><g><path d="M 8.234375 -52.875 C 8.234375 -63.601562 10.40625 -73.019531 14.75 -81.125 C 19.09375 -89.238281 25.0625 -95.53125 32.65625 -100 C 40.257812 -104.46875 48.722656 -106.703125 58.046875 -106.703125 C 67.242188 -106.703125 75.226562 -104.722656 82 -100.765625 C 88.769531 -96.804688 93.8125 -91.828125 97.125 -85.828125 L 97.125 -104.984375 L 114.75 -104.984375 L 114.75 0 L 97.125 0 L 97.125 -19.546875 C 93.675781 -13.410156 88.535156 -8.332031 81.703125 -4.3125 C 74.867188 -0.289062 66.921875 1.71875 57.859375 1.71875 C 48.535156 1.71875 40.101562 -0.578125 32.5625 -5.171875 C 25.03125 -9.765625 19.09375 -16.210938 14.75 -24.515625 C 10.40625 -32.816406 8.234375 -42.269531 8.234375 -52.875 Z M 97.125 -52.6875 C 97.125 -60.601562 95.523438 -67.5 92.328125 -73.375 C 89.140625 -79.25 84.832031 -83.75 79.40625 -86.875 C 73.976562 -90.007812 68.007812 -91.578125 61.5 -91.578125 C 54.976562 -91.578125 49.035156 -90.039062 43.671875 -86.96875 C 38.316406 -83.90625 34.039062 -79.4375 30.84375 -73.5625 C 27.644531 -67.6875 26.046875 -60.789062 26.046875 -52.875 C 26.046875 -44.832031 27.644531 -37.835938 30.84375 -31.890625 C 34.039062 -25.953125 38.316406 -21.421875 43.671875 -18.296875 C 49.035156 -15.171875 54.976562 -13.609375 61.5 -13.609375 C 68.007812 -13.609375 73.976562 -15.171875 79.40625 -18.296875 C 84.832031 -21.421875 89.140625 -25.953125 92.328125 -31.890625 C 95.523438 -37.835938 97.125 -44.769531 97.125 -52.6875 Z M 97.125 -52.6875 "/></g></g></g><g fill="#33cccc" fill-opacity="1"><g transform="translate(685.051159, 1193.504517)"><g><path d="M 53.828125 -16.09375 L 86.40625 -104.984375 L 104.984375 -104.984375 L 63.796875 0 L 43.484375 0 L 2.296875 -104.984375 L 21.078125 -104.984375 Z M 53.828125 -16.09375 "/></g></g></g><g fill="#33cccc" fill-opacity="1"><g transform="translate(799.614976, 1193.504517)"><g><path d="M 23.75 -122.03125 C 20.4375 -122.03125 17.628906 -123.179688 15.328125 -125.484375 C 13.023438 -127.785156 11.875 -130.59375 11.875 -133.90625 C 11.875 -137.226562 13.023438 -140.039062 15.328125 -142.34375 C 17.628906 -144.644531 20.4375 -145.796875 23.75 -145.796875 C 26.945312 -145.796875 29.660156 -144.644531 31.890625 -142.34375 C 34.128906 -140.039062 35.25 -137.226562 35.25 -133.90625 C 35.25 -130.59375 34.128906 -127.785156 31.890625 -125.484375 C 29.660156 -123.179688 26.945312 -122.03125 23.75 -122.03125 Z M 32.1875 -104.984375 L 32.1875 0 L 14.75 0 L 14.75 -104.984375 Z M 32.1875 -104.984375 "/></g></g></g><g fill="#33cccc" fill-opacity="1"><g transform="translate(853.831677, 1193.504517)"><g/></g></g><g fill="#33cccc" fill-opacity="1"><g transform="translate(912.071479, 1193.504517)"><g><path d="M 119.734375 0 L 102.296875 0 L 32.1875 -106.328125 L 32.1875 0 L 14.75 0 L 14.75 -133.71875 L 32.1875 -133.71875 L 102.296875 -27.59375 L 102.296875 -133.71875 L 119.734375 -133.71875 Z M 119.734375 0 "/></g></g></g><g fill="#33cccc" fill-opacity="1"><g transform="translate(1053.839414, 1193.504517)"><g><path d="M 20.3125 1.15625 C 16.988281 1.15625 14.175781 0.00390625 11.875 -2.296875 C 9.570312 -4.597656 8.421875 -7.410156 8.421875 -10.734375 C 8.421875 -14.046875 9.570312 -16.851562 11.875 -19.15625 C 14.175781 -21.457031 16.988281 -22.609375 20.3125 -22.609375 C 23.5 -22.609375 26.207031 -21.457031 28.4375 -19.15625 C 30.675781 -16.851562 31.796875 -14.046875 31.796875 -10.734375 C 31.796875 -7.410156 30.675781 -4.597656 28.4375 -2.296875 C 26.207031 0.00390625 23.5 1.15625 20.3125 1.15625 Z M 20.3125 1.15625 "/></g></g></g><g transform="matrix(1, 0, 0, 1, 460, 1233)"><g clip-path="url(#b97ab4b5f2)"><g fill="#33cccc" fill-opacity="1"><g transform="translate(2.684074, 60.154087)"><g><path d="M 26.796875 -39.65625 L 26.796875 -35.453125 L 9.5625 -35.453125 L 9.5625 -22.078125 L 23.5625 -22.078125 L 23.5625 -17.875 L 9.5625 -17.875 L 9.5625 0 L 4.375 0 L 4.375 -39.65625 Z M 26.796875 -39.65625 "/></g></g></g><g fill="#33cccc" fill-opacity="1"><g transform="translate(31.364935, 60.154087)"><g><path d="M 32.03125 -31.1875 L 32.03125 0 L 26.859375 0 L 26.859375 -4.609375 C 25.867188 -3.015625 24.492188 -1.769531 22.734375 -0.875 C 20.972656 0.0078125 19.03125 0.453125 16.90625 0.453125 C 14.476562 0.453125 12.296875 -0.046875 10.359375 -1.046875 C 8.421875 -2.054688 6.890625 -3.566406 5.765625 -5.578125 C 4.648438 -7.585938 4.09375 -10.035156 4.09375 -12.921875 L 4.09375 -31.1875 L 9.21875 -31.1875 L 9.21875 -13.59375 C 9.21875 -10.519531 9.992188 -8.160156 11.546875 -6.515625 C 13.109375 -4.867188 15.234375 -4.046875 17.921875 -4.046875 C 20.691406 -4.046875 22.875 -4.894531 24.46875 -6.59375 C 26.0625 -8.300781 26.859375 -10.789062 26.859375 -14.0625 L 26.859375 -31.1875 Z M 32.03125 -31.1875 "/></g></g></g><g fill="#33cccc" fill-opacity="1"><g transform="translate(67.785067, 60.154087)"><g><path d="M 9.5625 -42.109375 L 9.5625 0 L 4.375 0 L 4.375 -42.109375 Z M 9.5625 -42.109375 "/></g></g></g><g fill="#33cccc" fill-opacity="1"><g transform="translate(81.784074, 60.154087)"><g><path d="M 9.5625 -42.109375 L 9.5625 0 L 4.375 0 L 4.375 -42.109375 Z M 9.5625 -42.109375 "/></g></g></g><g fill="#33cccc" fill-opacity="1"><g transform="translate(95.783081, 60.154087)"><g/></g></g><g fill="#33cccc" fill-opacity="1"><g transform="translate(110.977126, 60.154087)"><g><path d="M 15.421875 0.515625 C 13.035156 0.515625 10.890625 0.109375 8.984375 -0.703125 C 7.085938 -1.523438 5.585938 -2.664062 4.484375 -4.125 C 3.390625 -5.582031 2.785156 -7.257812 2.671875 -9.15625 L 8.03125 -9.15625 C 8.175781 -7.601562 8.898438 -6.332031 10.203125 -5.34375 C 11.515625 -4.363281 13.234375 -3.875 15.359375 -3.875 C 17.335938 -3.875 18.894531 -4.304688 20.03125 -5.171875 C 21.164062 -6.046875 21.734375 -7.148438 21.734375 -8.484375 C 21.734375 -9.847656 21.125 -10.859375 19.90625 -11.515625 C 18.695312 -12.179688 16.820312 -12.835938 14.28125 -13.484375 C 11.96875 -14.085938 10.082031 -14.703125 8.625 -15.328125 C 7.164062 -15.960938 5.910156 -16.894531 4.859375 -18.125 C 3.816406 -19.351562 3.296875 -20.972656 3.296875 -22.984375 C 3.296875 -24.578125 3.769531 -26.035156 4.71875 -27.359375 C 5.664062 -28.691406 7.007812 -29.75 8.75 -30.53125 C 10.5 -31.3125 12.492188 -31.703125 14.734375 -31.703125 C 18.191406 -31.703125 20.984375 -30.828125 23.109375 -29.078125 C 25.234375 -27.335938 26.367188 -24.945312 26.515625 -21.90625 L 21.34375 -21.90625 C 21.226562 -23.539062 20.570312 -24.847656 19.375 -25.828125 C 18.175781 -26.816406 16.570312 -27.3125 14.5625 -27.3125 C 12.707031 -27.3125 11.226562 -26.910156 10.125 -26.109375 C 9.03125 -25.316406 8.484375 -24.273438 8.484375 -22.984375 C 8.484375 -21.960938 8.8125 -21.117188 9.46875 -20.453125 C 10.132812 -19.796875 10.96875 -19.265625 11.96875 -18.859375 C 12.976562 -18.460938 14.375 -18.019531 16.15625 -17.53125 C 18.394531 -16.914062 20.21875 -16.316406 21.625 -15.734375 C 23.03125 -15.148438 24.234375 -14.269531 25.234375 -13.09375 C 26.242188 -11.914062 26.765625 -10.378906 26.796875 -8.484375 C 26.796875 -6.773438 26.320312 -5.238281 25.375 -3.875 C 24.425781 -2.507812 23.085938 -1.4375 21.359375 -0.65625 C 19.640625 0.125 17.660156 0.515625 15.421875 0.515625 Z M 15.421875 0.515625 "/></g></g></g><g fill="#33cccc" fill-opacity="1"><g transform="translate(140.682278, 60.154087)"><g><path d="M 10.703125 -26.921875 L 10.703125 -8.53125 C 10.703125 -7.019531 11.023438 -5.945312 11.671875 -5.3125 C 12.316406 -4.6875 13.429688 -4.375 15.015625 -4.375 L 18.84375 -4.375 L 18.84375 0 L 14.171875 0 C 11.285156 0 9.117188 -0.660156 7.671875 -1.984375 C 6.234375 -3.316406 5.515625 -5.5 5.515625 -8.53125 L 5.515625 -26.921875 L 1.484375 -26.921875 L 1.484375 -31.1875 L 5.515625 -31.1875 L 5.515625 -39.03125 L 10.703125 -39.03125 L 10.703125 -31.1875 L 18.84375 -31.1875 L 18.84375 -26.921875 Z M 10.703125 -26.921875 "/></g></g></g><g fill="#33cccc" fill-opacity="1"><g transform="translate(161.396219, 60.154087)"><g><path d="M 2.453125 -15.703125 C 2.453125 -18.890625 3.09375 -21.6875 4.375 -24.09375 C 5.664062 -26.507812 7.441406 -28.378906 9.703125 -29.703125 C 11.960938 -31.035156 14.476562 -31.703125 17.25 -31.703125 C 19.976562 -31.703125 22.347656 -31.113281 24.359375 -29.9375 C 26.367188 -28.757812 27.863281 -27.28125 28.84375 -25.5 L 28.84375 -31.1875 L 34.09375 -31.1875 L 34.09375 0 L 28.84375 0 L 28.84375 -5.796875 C 27.820312 -3.984375 26.296875 -2.476562 24.265625 -1.28125 C 22.234375 -0.0820312 19.875 0.515625 17.1875 0.515625 C 14.414062 0.515625 11.910156 -0.164062 9.671875 -1.53125 C 7.429688 -2.894531 5.664062 -4.8125 4.375 -7.28125 C 3.09375 -9.75 2.453125 -12.554688 2.453125 -15.703125 Z M 28.84375 -15.65625 C 28.84375 -18 28.367188 -20.039062 27.421875 -21.78125 C 26.472656 -23.53125 25.191406 -24.867188 23.578125 -25.796875 C 21.972656 -26.734375 20.203125 -27.203125 18.265625 -27.203125 C 16.328125 -27.203125 14.5625 -26.742188 12.96875 -25.828125 C 11.375 -24.921875 10.101562 -23.59375 9.15625 -21.84375 C 8.207031 -20.101562 7.734375 -18.054688 7.734375 -15.703125 C 7.734375 -13.316406 8.207031 -11.238281 9.15625 -9.46875 C 10.101562 -7.707031 11.375 -6.363281 12.96875 -5.4375 C 14.5625 -4.507812 16.328125 -4.046875 18.265625 -4.046875 C 20.203125 -4.046875 21.972656 -4.507812 23.578125 -5.4375 C 25.191406 -6.363281 26.472656 -7.707031 27.421875 -9.46875 C 28.367188 -11.238281 28.84375 -13.300781 28.84375 -15.65625 Z M 28.84375 -15.65625 "/></g></g></g><g fill="#33cccc" fill-opacity="1"><g transform="translate(199.864981, 60.154087)"><g><path d="M 2.453125 -15.65625 C 2.453125 -18.875 3.09375 -21.6875 4.375 -24.09375 C 5.664062 -26.507812 7.457031 -28.378906 9.75 -29.703125 C 12.050781 -31.035156 14.679688 -31.703125 17.640625 -31.703125 C 21.472656 -31.703125 24.628906 -30.769531 27.109375 -28.90625 C 29.597656 -27.050781 31.238281 -24.472656 32.03125 -21.171875 L 26.46875 -21.171875 C 25.9375 -23.066406 24.898438 -24.5625 23.359375 -25.65625 C 21.828125 -26.757812 19.921875 -27.3125 17.640625 -27.3125 C 14.679688 -27.3125 12.289062 -26.296875 10.46875 -24.265625 C 8.644531 -22.234375 7.734375 -19.363281 7.734375 -15.65625 C 7.734375 -11.894531 8.644531 -8.988281 10.46875 -6.9375 C 12.289062 -4.894531 14.679688 -3.875 17.640625 -3.875 C 19.921875 -3.875 21.816406 -4.40625 23.328125 -5.46875 C 24.847656 -6.53125 25.894531 -8.046875 26.46875 -10.015625 L 32.03125 -10.015625 C 31.195312 -6.828125 29.53125 -4.273438 27.03125 -2.359375 C 24.53125 -0.441406 21.398438 0.515625 17.640625 0.515625 C 14.679688 0.515625 12.050781 -0.144531 9.75 -1.46875 C 7.457031 -2.800781 5.664062 -4.679688 4.375 -7.109375 C 3.09375 -9.535156 2.453125 -12.382812 2.453125 -15.65625 Z M 2.453125 -15.65625 "/></g></g></g><g fill="#33cccc" fill-opacity="1"><g transform="translate(234.407184, 60.154087)"><g><path d="M 21.796875 0 L 9.5625 -13.765625 L 9.5625 0 L 4.375 0 L 4.375 -42.109375 L 9.5625 -42.109375 L 9.5625 -17.359375 L 21.5625 -31.1875 L 28.796875 -31.1875 L 14.109375 -15.65625 L 28.84375 0 Z M 21.796875 0 "/></g></g></g><g fill="#33cccc" fill-opacity="1"><g transform="translate(263.71399, 60.154087)"><g/></g></g><g fill="#33cccc" fill-opacity="1"><g transform="translate(278.908035, 60.154087)"><g><path d="M 2.453125 -15.703125 C 2.453125 -18.890625 3.09375 -21.6875 4.375 -24.09375 C 5.664062 -26.507812 7.441406 -28.378906 9.703125 -29.703125 C 11.960938 -31.035156 14.492188 -31.703125 17.296875 -31.703125 C 19.722656 -31.703125 21.976562 -31.140625 24.0625 -30.015625 C 26.15625 -28.898438 27.75 -27.429688 28.84375 -25.609375 L 28.84375 -42.109375 L 34.09375 -42.109375 L 34.09375 0 L 28.84375 0 L 28.84375 -5.859375 C 27.820312 -4.003906 26.304688 -2.476562 24.296875 -1.28125 C 22.285156 -0.0820312 19.9375 0.515625 17.25 0.515625 C 14.476562 0.515625 11.960938 -0.164062 9.703125 -1.53125 C 7.441406 -2.894531 5.664062 -4.8125 4.375 -7.28125 C 3.09375 -9.75 2.453125 -12.554688 2.453125 -15.703125 Z M 28.84375 -15.65625 C 28.84375 -18 28.367188 -20.039062 27.421875 -21.78125 C 26.472656 -23.53125 25.191406 -24.867188 23.578125 -25.796875 C 21.972656 -26.734375 20.203125 -27.203125 18.265625 -27.203125 C 16.328125 -27.203125 14.5625 -26.742188 12.96875 -25.828125 C 11.375 -24.921875 10.101562 -23.59375 9.15625 -21.84375 C 8.207031 -20.101562 7.734375 -18.054688 7.734375 -15.703125 C 7.734375 -13.316406 8.207031 -11.238281 9.15625 -9.46875 C 10.101562 -7.707031 11.375 -6.363281 12.96875 -5.4375 C 14.5625 -4.507812 16.328125 -4.046875 18.265625 -4.046875 C 20.203125 -4.046875 21.972656 -4.507812 23.578125 -5.4375 C 25.191406 -6.363281 26.472656 -7.707031 27.421875 -9.46875 C 28.367188 -11.238281 28.84375 -13.300781 28.84375 -15.65625 Z M 28.84375 -15.65625 "/></g></g></g><g fill="#33cccc" fill-opacity="1"><g transform="translate(317.376797, 60.154087)"><g><path d="M 32.828125 -16.78125 C 32.828125 -15.800781 32.773438 -14.757812 32.671875 -13.65625 L 7.734375 -13.65625 C 7.929688 -10.582031 8.984375 -8.179688 10.890625 -6.453125 C 12.804688 -4.734375 15.132812 -3.875 17.875 -3.875 C 20.101562 -3.875 21.96875 -4.394531 23.46875 -5.4375 C 24.96875 -6.476562 26.019531 -7.867188 26.625 -9.609375 L 32.203125 -9.609375 C 31.367188 -6.617188 29.703125 -4.179688 27.203125 -2.296875 C 24.703125 -0.421875 21.59375 0.515625 17.875 0.515625 C 14.914062 0.515625 12.269531 -0.144531 9.9375 -1.46875 C 7.601562 -2.800781 5.769531 -4.691406 4.4375 -7.140625 C 3.113281 -9.585938 2.453125 -12.425781 2.453125 -15.65625 C 2.453125 -18.875 3.09375 -21.695312 4.375 -24.125 C 5.664062 -26.550781 7.476562 -28.421875 9.8125 -29.734375 C 12.144531 -31.046875 14.832031 -31.703125 17.875 -31.703125 C 20.832031 -31.703125 23.445312 -31.054688 25.71875 -29.765625 C 28 -28.472656 29.753906 -26.695312 30.984375 -24.4375 C 32.210938 -22.1875 32.828125 -19.632812 32.828125 -16.78125 Z M 27.484375 -17.875 C 27.484375 -19.84375 27.046875 -21.535156 26.171875 -22.953125 C 25.304688 -24.378906 24.125 -25.460938 22.625 -26.203125 C 21.125 -26.941406 19.460938 -27.3125 17.640625 -27.3125 C 15.023438 -27.3125 12.796875 -26.476562 10.953125 -24.8125 C 9.109375 -23.144531 8.054688 -20.832031 7.796875 -17.875 Z M 27.484375 -17.875 "/></g></g></g><g fill="#33cccc" fill-opacity="1"><g transform="translate(352.658792, 60.154087)"><g><path d="M 15.984375 -4.78125 L 25.671875 -31.1875 L 31.1875 -31.1875 L 18.953125 0 L 12.921875 0 L 0.6875 -31.1875 L 6.265625 -31.1875 Z M 15.984375 -4.78125 "/></g></g></g><g fill="#33cccc" fill-opacity="1"><g transform="translate(384.583319, 60.154087)"><g><path d="M 32.828125 -16.78125 C 32.828125 -15.800781 32.773438 -14.757812 32.671875 -13.65625 L 7.734375 -13.65625 C 7.929688 -10.582031 8.984375 -8.179688 10.890625 -6.453125 C 12.804688 -4.734375 15.132812 -3.875 17.875 -3.875 C 20.101562 -3.875 21.96875 -4.394531 23.46875 -5.4375 C 24.96875 -6.476562 26.019531 -7.867188 26.625 -9.609375 L 32.203125 -9.609375 C 31.367188 -6.617188 29.703125 -4.179688 27.203125 -2.296875 C 24.703125 -0.421875 21.59375 0.515625 17.875 0.515625 C 14.914062 0.515625 12.269531 -0.144531 9.9375 -1.46875 C 7.601562 -2.800781 5.769531 -4.691406 4.4375 -7.140625 C 3.113281 -9.585938 2.453125 -12.425781 2.453125 -15.65625 C 2.453125 -18.875 3.09375 -21.695312 4.375 -24.125 C 5.664062 -26.550781 7.476562 -28.421875 9.8125 -29.734375 C 12.144531 -31.046875 14.832031 -31.703125 17.875 -31.703125 C 20.832031 -31.703125 23.445312 -31.054688 25.71875 -29.765625 C 28 -28.472656 29.753906 -26.695312 30.984375 -24.4375 C 32.210938 -22.1875 32.828125 -19.632812 32.828125 -16.78125 Z M 27.484375 -17.875 C 27.484375 -19.84375 27.046875 -21.535156 26.171875 -22.953125 C 25.304688 -24.378906 24.125 -25.460938 22.625 -26.203125 C 21.125 -26.941406 19.460938 -27.3125 17.640625 -27.3125 C 15.023438 -27.3125 12.796875 -26.476562 10.953125 -24.8125 C 9.109375 -23.144531 8.054688 -20.832031 7.796875 -17.875 Z M 27.484375 -17.875 "/></g></g></g><g fill="#33cccc" fill-opacity="1"><g transform="translate(419.865314, 60.154087)"><g><path d="M 9.5625 -42.109375 L 9.5625 0 L 4.375 0 L 4.375 -42.109375 Z M 9.5625 -42.109375 "/></g></g></g><g fill="#33cccc" fill-opacity="1"><g transform="translate(433.864321, 60.154087)"><g><path d="M 17.984375 0.515625 C 15.054688 0.515625 12.40625 -0.144531 10.03125 -1.46875 C 7.664062 -2.800781 5.8125 -4.691406 4.46875 -7.140625 C 3.125 -9.585938 2.453125 -12.425781 2.453125 -15.65625 C 2.453125 -18.832031 3.140625 -21.644531 4.515625 -24.09375 C 5.898438 -26.539062 7.785156 -28.421875 10.171875 -29.734375 C 12.566406 -31.046875 15.242188 -31.703125 18.203125 -31.703125 C 21.171875 -31.703125 23.847656 -31.046875 26.234375 -29.734375 C 28.617188 -28.421875 30.503906 -26.550781 31.890625 -24.125 C 33.273438 -21.695312 33.96875 -18.875 33.96875 -15.65625 C 33.96875 -12.425781 33.253906 -9.585938 31.828125 -7.140625 C 30.410156 -4.691406 28.488281 -2.800781 26.0625 -1.46875 C 23.632812 -0.144531 20.941406 0.515625 17.984375 0.515625 Z M 17.984375 -4.046875 C 19.835938 -4.046875 21.582031 -4.476562 23.21875 -5.34375 C 24.851562 -6.21875 26.171875 -7.523438 27.171875 -9.265625 C 28.179688 -11.015625 28.6875 -13.144531 28.6875 -15.65625 C 28.6875 -18.15625 28.191406 -20.273438 27.203125 -22.015625 C 26.210938 -23.765625 24.921875 -25.066406 23.328125 -25.921875 C 21.734375 -26.773438 20.007812 -27.203125 18.15625 -27.203125 C 16.257812 -27.203125 14.519531 -26.773438 12.9375 -25.921875 C 11.363281 -25.066406 10.101562 -23.765625 9.15625 -22.015625 C 8.207031 -20.273438 7.734375 -18.15625 7.734375 -15.65625 C 7.734375 -13.113281 8.195312 -10.96875 9.125 -9.21875 C 10.0625 -7.46875 11.304688 -6.164062 12.859375 -5.3125 C 14.410156 -4.46875 16.117188 -4.046875 17.984375 -4.046875 Z M 17.984375 -4.046875 "/></g></g></g><g fill="#33cccc" fill-opacity="1"><g transform="translate(470.284453, 60.154087)"><g><path d="M 9.5625 -25.4375 C 10.582031 -27.21875 12.109375 -28.707031 14.140625 -29.90625 C 16.171875 -31.101562 18.53125 -31.703125 21.21875 -31.703125 C 23.988281 -31.703125 26.503906 -31.035156 28.765625 -29.703125 C 31.023438 -28.378906 32.796875 -26.507812 34.078125 -24.09375 C 35.367188 -21.6875 36.015625 -18.890625 36.015625 -15.703125 C 36.015625 -12.554688 35.367188 -9.75 34.078125 -7.28125 C 32.796875 -4.8125 31.023438 -2.894531 28.765625 -1.53125 C 26.503906 -0.164062 23.988281 0.515625 21.21875 0.515625 C 18.570312 0.515625 16.234375 -0.0820312 14.203125 -1.28125 C 12.171875 -2.476562 10.625 -3.96875 9.5625 -5.75 L 9.5625 14.796875 L 4.375 14.796875 L 4.375 -31.1875 L 9.5625 -31.1875 Z M 30.734375 -15.703125 C 30.734375 -18.054688 30.257812 -20.101562 29.3125 -21.84375 C 28.363281 -23.59375 27.082031 -24.921875 25.46875 -25.828125 C 23.851562 -26.742188 22.078125 -27.203125 20.140625 -27.203125 C 18.242188 -27.203125 16.488281 -26.734375 14.875 -25.796875 C 13.269531 -24.867188 11.984375 -23.523438 11.015625 -21.765625 C 10.046875 -20.003906 9.5625 -17.96875 9.5625 -15.65625 C 9.5625 -13.300781 10.046875 -11.238281 11.015625 -9.46875 C 11.984375 -7.707031 13.269531 -6.363281 14.875 -5.4375 C 16.488281 -4.507812 18.242188 -4.046875 20.140625 -4.046875 C 22.078125 -4.046875 23.851562 -4.507812 25.46875 -5.4375 C 27.082031 -6.363281 28.363281 -7.707031 29.3125 -9.46875 C 30.257812 -11.238281 30.734375 -13.316406 30.734375 -15.703125 Z M 30.734375 -15.703125 "/></g></g></g><g fill="#33cccc" fill-opacity="1"><g transform="translate(508.753215, 60.154087)"><g><path d="M 32.828125 -16.78125 C 32.828125 -15.800781 32.773438 -14.757812 32.671875 -13.65625 L 7.734375 -13.65625 C 7.929688 -10.582031 8.984375 -8.179688 10.890625 -6.453125 C 12.804688 -4.734375 15.132812 -3.875 17.875 -3.875 C 20.101562 -3.875 21.96875 -4.394531 23.46875 -5.4375 C 24.96875 -6.476562 26.019531 -7.867188 26.625 -9.609375 L 32.203125 -9.609375 C 31.367188 -6.617188 29.703125 -4.179688 27.203125 -2.296875 C 24.703125 -0.421875 21.59375 0.515625 17.875 0.515625 C 14.914062 0.515625 12.269531 -0.144531 9.9375 -1.46875 C 7.601562 -2.800781 5.769531 -4.691406 4.4375 -7.140625 C 3.113281 -9.585938 2.453125 -12.425781 2.453125 -15.65625 C 2.453125 -18.875 3.09375 -21.695312 4.375 -24.125 C 5.664062 -26.550781 7.476562 -28.421875 9.8125 -29.734375 C 12.144531 -31.046875 14.832031 -31.703125 17.875 -31.703125 C 20.832031 -31.703125 23.445312 -31.054688 25.71875 -29.765625 C 28 -28.472656 29.753906 -26.695312 30.984375 -24.4375 C 32.210938 -22.1875 32.828125 -19.632812 32.828125 -16.78125 Z M 27.484375 -17.875 C 27.484375 -19.84375 27.046875 -21.535156 26.171875 -22.953125 C 25.304688 -24.378906 24.125 -25.460938 22.625 -26.203125 C 21.125 -26.941406 19.460938 -27.3125 17.640625 -27.3125 C 15.023438 -27.3125 12.796875 -26.476562 10.953125 -24.8125 C 9.109375 -23.144531 8.054688 -20.832031 7.796875 -17.875 Z M 27.484375 -17.875 "/></g></g></g><g fill="#33cccc" fill-opacity="1"><g transform="translate(544.03521, 60.154087)"><g><path d="M 9.5625 -26.125 C 10.46875 -27.90625 11.765625 -29.285156 13.453125 -30.265625 C 15.140625 -31.253906 17.195312 -31.75 19.625 -31.75 L 19.625 -26.40625 L 18.265625 -26.40625 C 12.460938 -26.40625 9.5625 -23.253906 9.5625 -16.953125 L 9.5625 0 L 4.375 0 L 4.375 -31.1875 L 9.5625 -31.1875 Z M 9.5625 -26.125 "/></g></g></g><g fill="#33cccc" fill-opacity="1"><g transform="translate(565.261298, 60.154087)"><g><path d="M 6.03125 0.34375 C 5.039062 0.34375 4.203125 0.00390625 3.515625 -0.671875 C 2.835938 -1.359375 2.5 -2.195312 2.5 -3.1875 C 2.5 -4.175781 2.835938 -5.007812 3.515625 -5.6875 C 4.203125 -6.375 5.039062 -6.71875 6.03125 -6.71875 C 6.976562 -6.71875 7.785156 -6.375 8.453125 -5.6875 C 9.117188 -5.007812 9.453125 -4.175781 9.453125 -3.1875 C 9.453125 -2.195312 9.117188 -1.359375 8.453125 -0.671875 C 7.785156 0.00390625 6.976562 0.34375 6.03125 0.34375 Z M 6.03125 0.34375 "/></g></g></g></g></g></svg>